<svg height="57" viewBox="0 0 88 57" width="88" xmlns="http://www.w3.org/2000/svg"><path d="m701 52.05c.475076-.0136437.939484.1423407 1.31.44.339822.2838356.531337.7073795.52 1.15-.00523.6032707-.349347 1.1523112-.89 1.42-.29342.140187-.614817.2119885-.94.21h-3.54v-3.22zm-2.11-13.82c-.176991.1105208-.381337.1694003-.59.17h-1.91v-2.4h1.91c.204904-.0120506.409136.0329497.59.13.178848.1071696.32697.2587355.43.44.210142.3759615.210142.8340385 0 1.21-.099663.186371-.248349.3419726-.43.45zm1.03 4.46c-.097727.1910859-.251158.3480042-.44.45-.188735.1075835-.402774.1628194-.62.16h-2.47v-2.43h2.47c.219282-.0088819.435915.0505175.62.17.184002.1038575.336142.2559984.44.44.11072.1842474.169467.3950446.17.61-.000836.2117682-.059628.419267-.17.6zm12.22-.03c-1.097441.6106475-2.432559.6106475-3.53 0-.520794-.2942166-.949976-.7268597-1.24-1.25-.61039-1.10462-.61039-2.44538 0-3.55.289392-.5261931.718504-.9622264 1.24-1.26 1.097441-.6106475 2.432559-.6106475 3.53 0 .521496.2977736.950608.7338069 1.24 1.26.61039 1.10462.61039 2.44538 0 3.55-.290024.5231403-.719206.9557834-1.24 1.25zm10.35 0c-.528807-.2904024-.965393-.7235239-1.26-1.25-.61039-1.10462-.61039-2.44538 0-3.55.289392-.5261931.718504-.9622264 1.24-1.26 1.097441-.6106475 2.432559-.6106475 3.53 0 .531495.2913396.96866.7285047 1.26 1.26.61039 1.10462.61039 2.44538 0 3.55-.290024.5231403-.719206.9557834-1.24 1.25-1.097441.6106475-2.432559.6106475-3.53 0zm41.1 5.57c-.137986 5.031491-3.063649 9.5683886-7.59 11.77.206282.9457832.303583 1.9120776.29 2.88 0 7.83-7.21 14.2-16.06 14.2-3.725948.0311073-7.362592-1.1401937-10.37-3.34-1.127753.2114762-2.272591.3185956-3.42.32-1.656381.0031827-3.305274-.2222782-4.9-.67-5.784264 4.8410424-14.000029 5.4872261-20.47 1.61-1.651388.5813246-3.38928.8788625-5.14.88-7.66 0-13.88-5.54-13.88-12.34v-.26c-3.70983-2.3767729-5.98157-6.4546387-6.05-10.86.090565-4.6513842 2.599615-8.9190434 6.62-11.26-.091729-.6627453-.138502-1.3309385-.14-2 0-9.16 8.45-16.58 18.85-16.58 3.551763-.019571 7.048249.8795253 10.15 2.61 6.469854-5.6776479 16.177783-5.5698778 22.52.25 2.354074-1.6791667 5.178496-2.5716419 8.07-2.55 7.04 0 12.77 5.11 12.77 11.39-.00315.5258864-.046611 1.0507576-.13 1.57 5.37 2.22 8.88 7.03 8.88 12.38zm-9.67 10.86c4.77-1.93 7.97-6.17 7.97-10.86 0-5.16-3.75-9.64-9.18-11.29.282048-.8586043.427158-1.756261.43-2.66 0-5.34-4.97-9.69-11.07-9.69-3.05002-.0429642-5.997406 1.1008511-8.22 3.19-2.778739-3.1519927-6.752162-4.9939405-10.953288-5.0775828-4.201125-.0836423-8.244715 1.5986907-11.146712 4.6375828-3.098932-2.017959-6.72202-3.0819368-10.42-3.06-9.46 0-17.15 6.68-17.15 14.88-.000117.9826438.110582 1.9621666.33 2.92-4.052754 1.8571333-6.708469 5.8445762-6.86 10.3.085636 4.1935891 2.424671 8.0155431 6.12 10-.048523.384734-.071906.7722228-.07 1.16 0 5.87 5.46 10.64 12.18 10.64 1.833405.0015986 3.64875-.3621503 5.34-1.07 2.636821 1.7877874 5.754331 2.7328045 8.94 2.71 4.061419.0418072 7.975116-1.5215155 10.89-4.35 1.716135.5993585 3.522243.9003765 5.34.89 1.293164.0001736 2.581913-.1508518 3.84-.45 2.829537 2.2822899 6.364948 3.5090777 10 3.47 7.92 0 14.36-5.6 14.36-12.5-.002363-1.2925834-.229061-2.5749486-.67-3.79zm-3.64-20.96c5.63.87 9.91 5.05 9.91 10.08 0 4.66-3.62 8.59-8.62 9.84.856992 1.4586552 1.312429 3.1182398 1.32 4.81 0 5.97-5.66 10.8-12.66 10.8-3.519976.0497024-6.923245-1.2614518-9.5-3.66-1.392895.4090367-2.838331.6111957-4.29.6-2.003071.0061332-3.98536-.4059922-5.82-1.21-2.599128 3.0322834-6.416933 4.7449779-10.41 4.67-3.170861.0300118-6.255999-1.0289603-8.74-3-1.709544.8934553-3.611074 1.3568244-5.54 1.35-5.79 0-10.48-4-10.48-8.94.001719-.7032887.099283-1.403062.29-2.08-3.77-1.69-6.34-5.09-6.34-9 0-4.19 2.94-7.79 7.16-9.39-.449881-1.2302778-.680049-2.5300471-.68-3.84 0-7.28 6.92-13.16 15.45-13.16 3.903499-.0476131 7.702697 1.2600179 10.75 3.7 2.399413-3.4203794 6.353403-5.4105166 10.53-5.3 4.99 0 9.27 2.6 11.09 6.28 1.831001-2.8267979 5.003336-4.4944528 8.37-4.4 5.17 0 9.37 3.59 9.37 8-.001826 1.3691613-.405135 2.7077285-1.16 3.85zm-17.83-4.82v12.69h3.09v-7l3.71 6 3.75-6v7h3.13v-12.69h-2.75l-4.1 6.41-4.07-6.41zm-13.79 3v.05c-1.782695 3.0951757-.738533 7.0487153 2.34 8.86 1.994208 1.1707277 4.465792 1.1707277 6.46 0 3.078533-1.8112847 4.122695-5.7648243 2.34-8.86-.849727-1.4844819-2.256712-2.5685019-3.908808-3.0115638-1.652095-.443062-3.412692-.2085299-4.891192.6515638-.963997.5581548-1.769453 1.3532852-2.34 2.31zm-25.28-3v12.68h5.94c.665208.0132917 1.324867-.1234252 1.93-.4.555509-.2579229 1.024407-.6712476 1.35-1.19.342512-.566174.515997-1.218478.5-1.88.027748-.6702074-.157818-1.3319422-.53-1.89-.370905-.5012301-.882643-.880682-1.47-1.09.934497-.543441 1.477769-1.5717767 1.4-2.65.01624-.6647038-.157193-1.3202822-.5-1.89-.326454-.5523654-.810484-.9946084-1.39-1.27-.605656-.2876406-1.269607-.4313825-1.94-.42zm12.75 22.91c.446766-.7863983.681117-1.6755551.680113-2.58.005908-.9240683-.228424-1.8338266-.680113-2.64-.441406-.8028428-1.086341-1.4753692-1.87-1.95-.792171-.4702395-1.698857-.7124838-2.62-.7h-8.39v17.12h4.21v-6.76h4.18c.918797.0094976 1.824556-.2178029 2.63-.66.774612-.4298643 1.417598-1.0624797 1.86-1.83zm-1.33-13.34c1.784325 3.0756436 5.723677 4.1231531 8.8 2.34 1.987261-1.1699427 3.207274-3.3039271 3.207274-5.61s-1.220013-4.4400573-3.207274-5.61c-1.997059-1.1601918-4.462941-1.1601918-6.46 0-.971307.579392-1.777153 1.3990131-2.34 2.38-1.159054 2.0116581-1.159054 4.4883419 0 6.5zm5.31 19.37c.83 1.24 2.08-1.2 1.97-1.91-.23-1.65-.3-3.86.41-4.59.36-.36 3.69-.68 4.94-2 .318449-.2632721.522704-.6395306.57-1.05 0-.64-5.18-2.27-8.54 2.07-.43.55-2.04 3.48.65 7.48zm10.47-.19c.42-.55 2.03-3.47-.61-7.42-.85-1.24-2.1 1.2-2 1.88.24 1.6.3 3.87-.4 4.6-.41.36-3.74.68-5 2-.307473.2510821-.510631.6074988-.57 1 0 .65 5.21 2.27 8.58-2.06zm19.94 3.41 5.68-17.12h-4.46l-4.23 13.54-1.85-5.19 3.2-8.35h-4.08l-1.05 2.94-1-2.94h-4.08l3.21 8.35-1.86 5.19-4.25-13.54h-4.43l5.68 17.12h5.32l1.44-3.75 1.44 3.75z" fill="#44b542" transform="translate(-676 -21)"/></svg>